<svg width="138" height="47" viewBox="0 0 138 47" fill="none" xmlns="http://www.w3.org/2000/svg">
<line x1="58.1904" y1="24.619" x2="-4.57764e-05" y2="24.619" stroke="white" stroke-width="2.2381"/>
<path d="M67.6643 35V12.2121H75.6311C77.2185 12.2121 78.5278 12.4866 79.5589 13.0355C80.59 13.577 81.3578 14.3077 81.8622 15.2275C82.3666 16.1399 82.6188 17.1525 82.6188 18.2652C82.6188 19.2443 82.4445 20.0529 82.0958 20.6908C81.7546 21.3288 81.3021 21.8332 80.7384 22.2041C80.182 22.575 79.5774 22.8494 78.9247 23.0275V23.25C79.622 23.2945 80.323 23.5393 81.0277 23.9844C81.7324 24.4295 82.3221 25.0674 82.7968 25.8982C83.2716 26.729 83.509 27.7453 83.509 28.947C83.509 30.0893 83.2493 31.1167 82.7301 32.0291C82.2108 32.9415 81.3911 33.6648 80.271 34.1989C79.1509 34.733 77.6933 35 75.8982 35H67.6643ZM70.4237 32.5521H75.8982C77.7007 32.5521 78.9803 32.2034 79.7369 31.5062C80.501 30.8015 80.883 29.9484 80.883 28.947C80.883 28.1755 80.6864 27.4634 80.2933 26.8106C79.9001 26.1504 79.3401 25.6237 78.6131 25.2306C77.8862 24.83 77.0257 24.6297 76.0317 24.6297H70.4237V32.5521ZM70.4237 22.2263H75.5421C76.3729 22.2263 77.1221 22.0631 77.7897 21.7367C78.4648 21.4104 78.9989 20.9504 79.392 20.357C79.7926 19.7636 79.9929 19.0663 79.9929 18.2652C79.9929 17.2637 79.6442 16.4144 78.9469 15.7171C78.2496 15.0124 77.1444 14.66 75.6311 14.66H70.4237V22.2263ZM92.7165 35.4006C91.6334 35.4006 90.6506 35.1966 89.7678 34.7886C88.8851 34.3732 88.1841 33.776 87.6648 32.9972C87.1456 32.2109 86.886 31.2614 86.886 30.1487C86.886 29.1695 87.0788 28.3758 87.4646 27.7675C87.8503 27.1518 88.3658 26.6697 89.0112 26.321C89.6566 25.9724 90.3687 25.7128 91.1476 25.5421C91.9339 25.3641 92.7239 25.2232 93.5176 25.1193C94.5561 24.9858 95.398 24.8857 96.0434 24.8189C96.6962 24.7447 97.1709 24.6223 97.4676 24.4517C97.7718 24.2811 97.9238 23.9844 97.9238 23.5616V23.4725C97.9238 22.3747 97.6234 21.5216 97.0226 20.9134C96.4291 20.3051 95.5279 20.0009 94.3187 20.0009C93.0651 20.0009 92.0822 20.2754 91.3701 20.8243C90.658 21.3733 90.1573 21.9593 89.868 22.5824L87.3755 21.6922C87.8206 20.6537 88.4141 19.8452 89.1559 19.2666C89.9051 18.6806 90.721 18.2726 91.6038 18.0426C92.4939 17.8052 93.3692 17.6866 94.2297 17.6866C94.7786 17.6866 95.4092 17.7533 96.1213 17.8868C96.8408 18.0129 97.5344 18.2763 98.202 18.6768C98.877 19.0774 99.4371 19.682 99.8822 20.4905C100.327 21.2991 100.55 22.3821 100.55 23.7396V35H97.9238V32.6856H97.7903C97.6123 33.0565 97.3156 33.4534 96.9002 33.8762C96.4848 34.299 95.9321 34.6588 95.2423 34.9555C94.5524 35.2522 93.7105 35.4006 92.7165 35.4006ZM93.117 33.0417C94.1555 33.0417 95.0309 32.8377 95.743 32.4297C96.4625 32.0217 97.004 31.495 97.3675 30.8497C97.7384 30.2043 97.9238 29.5256 97.9238 28.8134V26.41C97.8126 26.5436 97.5678 26.666 97.1895 26.7772C96.8186 26.8811 96.3883 26.9738 95.8987 27.0554C95.4166 27.1296 94.9455 27.1963 94.4856 27.2557C94.0331 27.3076 93.666 27.3521 93.3841 27.3892C92.7016 27.4782 92.0637 27.6229 91.4702 27.8232C90.8842 28.016 90.4095 28.309 90.046 28.7022C89.6899 29.0879 89.5119 29.6146 89.5119 30.2822C89.5119 31.1946 89.8494 31.8845 90.5245 32.3518C91.2069 32.8117 92.0711 33.0417 93.117 33.0417ZM112.286 35.3561C110.684 35.3561 109.304 34.9777 108.147 34.2211C106.989 33.4645 106.099 32.4223 105.476 31.0945C104.853 29.7667 104.542 28.2497 104.542 26.5436C104.542 24.8078 104.861 23.276 105.498 21.9482C106.144 20.6129 107.041 19.5707 108.191 18.8215C109.348 18.0649 110.698 17.6866 112.241 17.6866C113.443 17.6866 114.526 17.9091 115.49 18.3542C116.455 18.7992 117.245 19.4223 117.86 20.2235C118.476 21.0246 118.858 21.9593 119.007 23.0275H116.381C116.18 22.2486 115.735 21.5587 115.045 20.9579C114.363 20.3496 113.443 20.0455 112.286 20.0455C111.262 20.0455 110.365 20.3125 109.593 20.8466C108.829 21.3733 108.232 22.1188 107.802 23.0831C107.379 24.04 107.168 25.1638 107.168 26.4545C107.168 27.7749 107.375 28.9247 107.791 29.9039C108.213 30.883 108.807 31.6434 109.571 32.1849C110.342 32.7264 111.247 32.9972 112.286 32.9972C112.968 32.9972 113.588 32.8785 114.144 32.6411C114.7 32.4037 115.171 32.0625 115.557 31.6174C115.943 31.1723 116.217 30.6383 116.381 30.0152H119.007C118.858 31.024 118.491 31.9327 117.905 32.7412C117.326 33.5424 116.559 34.1803 115.602 34.6551C114.652 35.1224 113.547 35.3561 112.286 35.3561ZM125.293 28.7689L125.249 25.5199H125.783L133.26 17.9091H136.509L128.542 25.965H128.32L125.293 28.7689ZM122.845 35V12.2121H125.471V35H122.845ZM133.705 35L127.029 26.5436L128.898 24.7187L137.043 35H133.705Z" fill="white"/>
</svg>
