<svg width="142" height="29" viewBox="0 0 142 29" fill="none" xmlns="http://www.w3.org/2000/svg">
<path d="M1.29825 20.4263V7.26383H9.73044V9.26262H3.68266V12.836H9.15201V14.8348H3.68266V20.4263H1.29825ZM11.7999 20.4263V10.5544H14.1265V20.4263H11.7999ZM12.9696 9.15336C12.6012 9.15336 12.2841 9.03124 12.0184 8.78702C11.7528 8.53851 11.62 8.24073 11.62 7.89367C11.62 7.54233 11.7528 7.24454 12.0184 7.00032C12.2841 6.75181 12.6012 6.62755 12.9696 6.62755C13.3424 6.62755 13.6595 6.75181 13.9208 7.00032C14.1865 7.24454 14.3193 7.54233 14.3193 7.89367C14.3193 8.24073 14.1865 8.53851 13.9208 8.78702C13.6595 9.03124 13.3424 9.15336 12.9696 9.15336ZM20.8121 24.3339C19.9766 24.3339 19.259 24.2203 18.6591 23.9932C18.0593 23.7704 17.5772 23.4705 17.213 23.0935C16.8488 22.7164 16.5961 22.2987 16.4547 21.8402L18.5499 21.3325C18.6441 21.5253 18.7812 21.7159 18.9612 21.9045C19.1411 22.0973 19.3832 22.2558 19.6874 22.3801C19.9959 22.5086 20.3837 22.5729 20.8507 22.5729C21.5105 22.5729 22.0568 22.4122 22.4896 22.0909C22.9223 21.7738 23.1387 21.2511 23.1387 20.5227V18.6524H23.023C22.9031 18.8924 22.7274 19.1387 22.496 19.3915C22.2689 19.6443 21.9669 19.8564 21.5898 20.0278C21.217 20.1992 20.7479 20.2849 20.1823 20.2849C19.4239 20.2849 18.7362 20.1071 18.1192 19.7514C17.5065 19.3915 17.0181 18.8559 16.6539 18.1447C16.294 17.4292 16.114 16.5337 16.114 15.4582C16.114 14.3742 16.294 13.4594 16.6539 12.7139C17.0181 11.9641 17.5087 11.3964 18.1257 11.0108C18.7427 10.6208 19.4303 10.4259 20.1887 10.4259C20.7672 10.4259 21.2428 10.5244 21.6155 10.7215C21.9926 10.9143 22.2925 11.1479 22.5153 11.4221C22.7381 11.692 22.9073 11.9469 23.023 12.1869H23.1516V10.5544H25.446V20.5869C25.446 21.431 25.2446 22.1294 24.8419 22.6821C24.4391 23.2349 23.8885 23.6483 23.1901 23.9225C22.4917 24.1968 21.6991 24.3339 20.8121 24.3339ZM20.8314 18.4596C21.3242 18.4596 21.7441 18.3396 22.0911 18.0997C22.4382 17.8598 22.7017 17.5149 22.8816 17.065C23.0616 16.6151 23.1516 16.0752 23.1516 15.4454C23.1516 14.8241 23.0616 14.2799 22.8816 13.8129C22.706 13.3459 22.4446 12.9838 22.0975 12.7268C21.7548 12.4654 21.3327 12.3347 20.8314 12.3347C20.313 12.3347 19.8802 12.4697 19.5332 12.7396C19.1861 13.0095 18.9248 13.3802 18.7491 13.8515C18.5734 14.3185 18.4856 14.8498 18.4856 15.4454C18.4856 16.0495 18.5734 16.5787 18.7491 17.0328C18.929 17.4827 19.1926 17.8341 19.5396 18.0869C19.8909 18.3354 20.3216 18.4596 20.8314 18.4596ZM27.8304 20.4263V10.5544H30.0541V12.2319H30.1698C30.3755 11.6663 30.7161 11.225 31.1917 10.9079C31.6673 10.5866 32.235 10.4259 32.8949 10.4259C33.5633 10.4259 34.1267 10.5887 34.5852 10.9143C35.0479 11.2357 35.3735 11.6749 35.5621 12.2319H35.6649C35.8834 11.6834 36.2519 11.2464 36.7703 10.9208C37.2931 10.5909 37.9122 10.4259 38.6277 10.4259C39.5361 10.4259 40.2773 10.713 40.8515 11.2871C41.4256 11.8613 41.7127 12.6989 41.7127 13.8001V20.4263H39.3797V14.16C39.3797 13.5473 39.2169 13.0995 38.8912 12.8167C38.5656 12.5297 38.1671 12.3861 37.6958 12.3861C37.1345 12.3861 36.6953 12.5618 36.3783 12.9131C36.0655 13.2602 35.9091 13.7122 35.9091 14.2692V20.4263H33.6275V14.0636C33.6275 13.5537 33.4733 13.1466 33.1648 12.8424C32.8606 12.5382 32.4621 12.3861 31.9694 12.3861C31.6352 12.3861 31.331 12.4718 31.0567 12.6432C30.7825 12.8103 30.564 13.0481 30.4012 13.3566C30.2384 13.6608 30.157 14.0164 30.157 14.4235V20.4263H27.8304ZM46.9137 20.6255C46.2881 20.6255 45.7247 20.5141 45.2234 20.2913C44.7264 20.0642 44.3322 19.73 44.0408 19.2887C43.7538 18.8474 43.6102 18.3032 43.6102 17.6562C43.6102 17.0992 43.7131 16.6386 43.9187 16.2744C44.1244 15.9102 44.405 15.6189 44.7607 15.4004C45.1163 15.1819 45.5169 15.0169 45.9625 14.9055C46.4124 14.7898 46.8773 14.7063 47.3572 14.6548C47.9356 14.5949 48.4048 14.5413 48.7647 14.4942C49.1246 14.4428 49.3859 14.3656 49.5488 14.2628C49.7159 14.1557 49.7994 13.9907 49.7994 13.7679V13.7294C49.7994 13.2452 49.6559 12.8703 49.3688 12.6046C49.0817 12.339 48.6683 12.2062 48.1284 12.2062C47.5585 12.2062 47.1065 12.3304 46.7723 12.5789C46.4424 12.8274 46.2196 13.1209 46.1039 13.4594L43.9316 13.1509C44.103 12.5511 44.3858 12.0498 44.7799 11.647C45.1741 11.24 45.6562 10.9358 46.226 10.7344C46.7959 10.5287 47.4257 10.4259 48.1155 10.4259C48.5911 10.4259 49.0646 10.4816 49.5359 10.593C50.0072 10.7044 50.4378 10.8886 50.8277 11.1457C51.2176 11.3985 51.5304 11.7434 51.7661 12.1805C52.006 12.6175 52.126 13.1638 52.126 13.8193V20.4263H49.8894V19.0702H49.8123C49.6709 19.3444 49.4716 19.6015 49.2146 19.8414C48.9618 20.0771 48.6426 20.2677 48.2569 20.4134C47.8756 20.5548 47.4279 20.6255 46.9137 20.6255ZM47.5178 18.9159C47.9849 18.9159 48.3898 18.8238 48.7325 18.6396C49.0753 18.451 49.3388 18.2025 49.5231 17.894C49.7116 17.5855 49.8058 17.2492 49.8058 16.885V15.7217C49.733 15.7817 49.6087 15.8374 49.4331 15.8888C49.2617 15.9402 49.0689 15.9852 48.8546 16.0238C48.6404 16.0624 48.4283 16.0966 48.2184 16.1266C48.0084 16.1566 47.8263 16.1823 47.6721 16.2037C47.325 16.2509 47.0144 16.328 46.7402 16.4351C46.466 16.5422 46.2496 16.6922 46.091 16.885C45.9325 17.0735 45.8532 17.3178 45.8532 17.6177C45.8532 18.0461 46.0096 18.3696 46.3224 18.5882C46.6352 18.8067 47.0337 18.9159 47.5178 18.9159ZM66.2107 10.8822C66.1507 10.3209 65.8979 9.88389 65.4523 9.57111C65.011 9.25833 64.4368 9.10194 63.7299 9.10194C63.2329 9.10194 62.8065 9.17692 62.4509 9.32688C62.0953 9.47685 61.8232 9.68037 61.6347 9.93745C61.4462 10.1945 61.3498 10.488 61.3455 10.8179C61.3455 11.0922 61.4076 11.33 61.5319 11.5313C61.6604 11.7327 61.8339 11.9041 62.0524 12.0455C62.271 12.1826 62.513 12.2983 62.7787 12.3926C63.0443 12.4868 63.3121 12.5661 63.5821 12.6303L64.816 12.9388C65.3131 13.0545 65.7908 13.2109 66.2493 13.408C66.712 13.6051 67.1255 13.8536 67.4897 14.1535C67.8581 14.4535 68.1495 14.8155 68.3637 15.2397C68.578 15.6639 68.6851 16.1609 68.6851 16.7308C68.6851 17.502 68.488 18.1811 68.0938 18.7681C67.6996 19.3508 67.1297 19.8071 66.3842 20.1371C65.643 20.4627 64.7453 20.6255 63.6913 20.6255C62.6673 20.6255 61.7782 20.467 61.0241 20.1499C60.2743 19.8328 59.6873 19.3701 59.2631 18.7617C58.8432 18.1533 58.6162 17.412 58.5819 16.5379H60.9277C60.962 16.9964 61.1034 17.3777 61.3519 17.682C61.6004 17.9862 61.9239 18.2132 62.3224 18.3632C62.7251 18.5132 63.175 18.5882 63.672 18.5882C64.1905 18.5882 64.6447 18.511 65.0346 18.3568C65.4287 18.1983 65.7372 17.9797 65.96 17.7012C66.1828 17.4184 66.2964 17.0885 66.3007 16.7115C66.2964 16.3687 66.1957 16.0859 65.9986 15.8631C65.8015 15.636 65.5251 15.4475 65.1695 15.2975C64.8182 15.1433 64.4069 15.0062 63.9355 14.8862L62.4381 14.5006C61.354 14.2221 60.4971 13.8001 59.8673 13.2345C59.2417 12.6646 58.9289 11.9084 58.9289 10.9658C58.9289 10.1902 59.1389 9.51112 59.5588 8.92841C59.983 8.3457 60.5592 7.89367 61.2876 7.57232C62.016 7.24669 62.8408 7.08387 63.762 7.08387C64.6961 7.08387 65.5144 7.24669 66.2171 7.57232C66.9241 7.89367 67.4789 8.34142 67.8817 8.91556C68.2845 9.48542 68.4923 10.141 68.5051 10.8822H66.2107ZM73.0345 14.642V20.4263H70.708V7.26383H72.9831V12.2319H73.0988C73.3302 11.6749 73.6879 11.2357 74.1721 10.9143C74.6606 10.5887 75.2818 10.4259 76.0359 10.4259C76.7215 10.4259 77.3192 10.5694 77.8291 10.8565C78.3389 11.1436 78.7331 11.5635 79.0116 12.1162C79.2944 12.6689 79.4358 13.3437 79.4358 14.1407V20.4263H77.1092V14.5006C77.1092 13.8365 76.9378 13.3202 76.5951 12.9517C76.2566 12.5789 75.781 12.3926 75.1683 12.3926C74.757 12.3926 74.3885 12.4825 74.0628 12.6625C73.7415 12.8382 73.4887 13.0931 73.3045 13.4273C73.1245 13.7615 73.0345 14.1664 73.0345 14.642ZM86.1134 20.6191C85.1494 20.6191 84.3139 20.407 83.6069 19.9828C82.8999 19.5586 82.3515 18.9652 81.9616 18.2025C81.576 17.4399 81.3832 16.5487 81.3832 15.5289C81.3832 14.5092 81.576 13.6158 81.9616 12.8489C82.3515 12.0819 82.8999 11.4863 83.6069 11.0622C84.3139 10.638 85.1494 10.4259 86.1134 10.4259C87.0775 10.4259 87.913 10.638 88.6199 11.0622C89.3269 11.4863 89.8732 12.0819 90.2588 12.8489C90.6487 13.6158 90.8437 14.5092 90.8437 15.5289C90.8437 16.5487 90.6487 17.4399 90.2588 18.2025C89.8732 18.9652 89.3269 19.5586 88.6199 19.9828C87.913 20.407 87.0775 20.6191 86.1134 20.6191ZM86.1263 18.7553C86.649 18.7553 87.086 18.6117 87.4374 18.3246C87.7887 18.0333 88.0501 17.6434 88.2215 17.1549C88.3971 16.6665 88.485 16.1223 88.485 15.5225C88.485 14.9184 88.3971 14.3721 88.2215 13.8836C88.0501 13.3909 87.7887 12.9988 87.4374 12.7075C87.086 12.4161 86.649 12.2704 86.1263 12.2704C85.5907 12.2704 85.1451 12.4161 84.7895 12.7075C84.4381 12.9988 84.1746 13.3909 83.9989 13.8836C83.8276 14.3721 83.7419 14.9184 83.7419 15.5225C83.7419 16.1223 83.8276 16.6665 83.9989 17.1549C84.1746 17.6434 84.4381 18.0333 84.7895 18.3246C85.1451 18.6117 85.5907 18.7553 86.1263 18.7553ZM92.8184 24.1282V10.5544H95.1064V12.1869H95.2413C95.3613 11.9469 95.5305 11.692 95.7491 11.4221C95.9676 11.1479 96.2632 10.9143 96.636 10.7215C97.0088 10.5244 97.4843 10.4259 98.0628 10.4259C98.8254 10.4259 99.5131 10.6208 100.126 11.0108C100.743 11.3964 101.231 11.9684 101.591 12.7268C101.955 13.4809 102.137 14.4063 102.137 15.5032C102.137 16.5872 101.96 17.5084 101.604 18.2668C101.248 19.0252 100.764 19.6036 100.152 20.0021C99.5388 20.4006 98.8447 20.5998 98.0692 20.5998C97.5036 20.5998 97.0345 20.5055 96.6617 20.317C96.2889 20.1285 95.989 19.9014 95.7619 19.6358C95.5391 19.3658 95.3656 19.1109 95.2413 18.8709H95.1449V24.1282H92.8184ZM95.0999 15.4904C95.0999 16.1288 95.1899 16.6879 95.3699 17.1678C95.5541 17.6477 95.8176 18.0226 96.1604 18.2925C96.5074 18.5582 96.9273 18.691 97.4201 18.691C97.9342 18.691 98.3648 18.5539 98.7119 18.2797C99.059 18.0012 99.3203 17.622 99.496 17.1421C99.6759 16.6579 99.7659 16.1073 99.7659 15.4904C99.7659 14.8776 99.6781 14.3335 99.5024 13.8579C99.3267 13.3823 99.0654 13.0095 98.7183 12.7396C98.3713 12.4697 97.9385 12.3347 97.4201 12.3347C96.9231 12.3347 96.501 12.4654 96.154 12.7268C95.8069 12.9881 95.5434 13.3545 95.3634 13.8258C95.1878 14.2971 95.0999 14.8519 95.0999 15.4904ZM104.13 24.1282V10.5544H106.418V12.1869H106.553C106.673 11.9469 106.842 11.692 107.061 11.4221C107.279 11.1479 107.575 10.9143 107.947 10.7215C108.32 10.5244 108.796 10.4259 109.374 10.4259C110.137 10.4259 110.825 10.6208 111.437 11.0108C112.054 11.3964 112.543 11.9684 112.903 12.7268C113.267 13.4809 113.449 14.4063 113.449 15.5032C113.449 16.5872 113.271 17.5084 112.916 18.2668C112.56 19.0252 112.076 19.6036 111.463 20.0021C110.85 20.4006 110.156 20.5998 109.381 20.5998C108.815 20.5998 108.346 20.5055 107.973 20.317C107.6 20.1285 107.3 19.9014 107.073 19.6358C106.851 19.3658 106.677 19.1109 106.553 18.8709H106.456V24.1282H104.13ZM106.411 15.4904C106.411 16.1288 106.501 16.6879 106.681 17.1678C106.866 17.6477 107.129 18.0226 107.472 18.2925C107.819 18.5582 108.239 18.691 108.732 18.691C109.246 18.691 109.676 18.5539 110.023 18.2797C110.37 18.0012 110.632 17.622 110.807 17.1421C110.987 16.6579 111.077 16.1073 111.077 15.4904C111.077 14.8776 110.99 14.3335 110.814 13.8579C110.638 13.3823 110.377 13.0095 110.03 12.7396C109.683 12.4697 109.25 12.3347 108.732 12.3347C108.235 12.3347 107.812 12.4654 107.465 12.7268C107.118 12.9881 106.855 13.3545 106.675 13.8258C106.499 14.2971 106.411 14.8519 106.411 15.4904ZM115.441 20.4263V10.5544H117.768V20.4263H115.441ZM116.611 9.15336C116.243 9.15336 115.925 9.03124 115.66 8.78702C115.394 8.53851 115.261 8.24073 115.261 7.89367C115.261 7.54233 115.394 7.24454 115.66 7.00032C115.925 6.75181 116.243 6.62755 116.611 6.62755C116.984 6.62755 117.301 6.75181 117.562 7.00032C117.828 7.24454 117.961 7.54233 117.961 7.89367C117.961 8.24073 117.828 8.53851 117.562 8.78702C117.301 9.03124 116.984 9.15336 116.611 9.15336ZM122.487 14.642V20.4263H120.16V10.5544H122.384V12.2319H122.5C122.727 11.6792 123.089 11.24 123.586 10.9143C124.087 10.5887 124.706 10.4259 125.443 10.4259C126.125 10.4259 126.718 10.5716 127.224 10.8629C127.733 11.1543 128.128 11.5763 128.406 12.129C128.689 12.6818 128.828 13.3523 128.824 14.1407V20.4263H126.497V14.5006C126.497 13.8408 126.326 13.3245 125.983 12.9517C125.645 12.5789 125.176 12.3926 124.576 12.3926C124.169 12.3926 123.807 12.4825 123.489 12.6625C123.177 12.8382 122.93 13.0931 122.75 13.4273C122.575 13.7615 122.487 14.1664 122.487 14.642ZM135.482 24.3339C134.647 24.3339 133.929 24.2203 133.329 23.9932C132.729 23.7704 132.247 23.4705 131.883 23.0935C131.519 22.7164 131.266 22.2987 131.125 21.8402L133.22 21.3325C133.314 21.5253 133.451 21.7159 133.631 21.9045C133.811 22.0973 134.053 22.2558 134.358 22.3801C134.666 22.5086 135.054 22.5729 135.521 22.5729C136.181 22.5729 136.727 22.4122 137.16 22.0909C137.592 21.7738 137.809 21.2511 137.809 20.5227V18.6524H137.693C137.573 18.8924 137.397 19.1387 137.166 19.3915C136.939 19.6443 136.637 19.8564 136.26 20.0278C135.887 20.1992 135.418 20.2849 134.852 20.2849C134.094 20.2849 133.406 20.1071 132.789 19.7514C132.177 19.3915 131.688 18.8559 131.324 18.1447C130.964 17.4292 130.784 16.5337 130.784 15.4582C130.784 14.3742 130.964 13.4594 131.324 12.7139C131.688 11.9641 132.179 11.3964 132.796 11.0108C133.413 10.6208 134.1 10.4259 134.859 10.4259C135.437 10.4259 135.913 10.5244 136.286 10.7215C136.663 10.9143 136.963 11.1479 137.185 11.4221C137.408 11.692 137.577 11.9469 137.693 12.1869H137.822V10.5544H140.116V20.5869C140.116 21.431 139.915 22.1294 139.512 22.6821C139.109 23.2349 138.559 23.6483 137.86 23.9225C137.162 24.1968 136.369 24.3339 135.482 24.3339ZM135.502 18.4596C135.994 18.4596 136.414 18.3396 136.761 18.0997C137.108 17.8598 137.372 17.5149 137.552 17.065C137.732 16.6151 137.822 16.0752 137.822 15.4454C137.822 14.8241 137.732 14.2799 137.552 13.8129C137.376 13.3459 137.115 12.9838 136.768 12.7268C136.425 12.4654 136.003 12.3347 135.502 12.3347C134.983 12.3347 134.55 12.4697 134.203 12.7396C133.856 13.0095 133.595 13.3802 133.419 13.8515C133.243 14.3185 133.156 14.8498 133.156 15.4454C133.156 16.0495 133.243 16.5787 133.419 17.0328C133.599 17.4827 133.863 17.8341 134.21 18.0869C134.561 18.3354 134.992 18.4596 135.502 18.4596Z" fill="black"/>
<line x1="21" y1="28" x2="117" y2="28" stroke="black" stroke-width="2"/>
</svg>
