<svg width="24" height="24" viewBox="0 0 24 24" fill="none" xmlns="http://www.w3.org/2000/svg">
<path opacity="0.4" d="M11.9187 21.5826C17.3368 21.5826 21.729 17.1904 21.729 11.7723C21.729 6.35426 17.3368 1.96204 11.9187 1.96204C6.50062 1.96204 2.1084 6.35426 2.1084 11.7723C2.1084 17.1904 6.50062 21.5826 11.9187 21.5826Z" fill="#292D32"/>
<path d="M10.6825 15.9712C10.4961 15.9712 10.3097 15.9025 10.1626 15.7553C9.87809 15.4708 9.87809 14.9999 10.1626 14.7154L13.1057 11.7723L10.1626 8.82925C9.87809 8.54476 9.87809 8.07386 10.1626 7.78936C10.4471 7.50486 10.918 7.50486 11.2025 7.78936L14.6655 11.2524C14.95 11.5369 14.95 12.0078 14.6655 12.2923L11.2025 15.7553C11.0553 15.9025 10.8689 15.9712 10.6825 15.9712Z" fill="#292D32"/>
</svg>
