<svg width="24" height="24" viewBox="0 0 24 24" fill="none" xmlns="http://www.w3.org/2000/svg">
<path opacity="0.4" d="M11.7725 21.5826C17.1905 21.5826 21.5828 17.1904 21.5828 11.7723C21.5828 6.35426 17.1905 1.96204 11.7725 1.96204C6.35438 1.96204 1.96216 6.35426 1.96216 11.7723C1.96216 17.1904 6.35438 21.5826 11.7725 21.5826Z" fill="#292D32"/>
<path d="M13.0084 15.9712C12.822 15.9712 12.6356 15.9025 12.4884 15.7553L9.02539 12.2923C8.74089 12.0078 8.74089 11.5369 9.02539 11.2524L12.4884 7.78936C12.7729 7.50486 13.2438 7.50486 13.5283 7.78936C13.8128 8.07386 13.8128 8.54476 13.5283 8.82925L10.5852 11.7723L13.5283 14.7154C13.8128 14.9999 13.8128 15.4708 13.5283 15.7553C13.391 15.9025 13.2046 15.9712 13.0084 15.9712Z" fill="#292D32"/>
</svg>
